<svg xmlns="http://www.w3.org/2000/svg" viewBox="0 0 7520 2680">
	<g fill="rgb(0,0,0)" stroke="rgb(0,0,0)" stroke-width="1" fill-rule="evenodd">
			<path
				d="M431 2521 L363 2512 316 2491 L270 2471 219 2420 L168 2369 146 2322 L125 2275 121 1380 L118 485 130 430 C145 359 162 328 212 272 L254 228 301 204 L348 180 416 169 L485 159 3815 162 L7145 165 7190 182 L7235 200 7287 245 L7338 290 7366 347 L7395 405 7395 1340 L7395 2275 7373 2321 L7351 2368 7309 2414 L7267 2459 7216 2484 L7165 2509 7097 2519 L7030 2530 3765 2530 L500 2530 431 2521 M1672 2145 C1549 2116 1428 2092 1035 2014 C881 1983 724 1951 687 1943 L620 1928 620 1504 L620 1081 637 1076 C647 1073 805 1041 990 1005 C1174 969 1354 933 1390 925 C1425 917 1529 896 1621 878 L1788 847 1901 887 L2015 927 2020 1499 L2025 2071 2012 2080 C2005 2085 1950 2108 1890 2130 L1780 2170 1672 2145 M1352 1785 C1315 1778 1255 1768 1220 1763 L1155 1755 1152 1627 L1149 1500 1319 1500 L1490 1500 1490 1650 L1490 1800 1455 1800 C1435 1800 1389 1793 1352 1785 M978 1735 C934 1727 891 1718 883 1715 L870 1710 870 1605 L870 1500 1000 1500 L1130 1500 1130 1625 L1130 1750 1095 1750 C1075 1750 1023 1743 978 1735 M874 1466 C871 1459 870 1413 872 1364 L875 1275 985 1258 C1045 1248 1104 1240 1115 1240 L1135 1239 1132 1359 L1130 1480 1005 1480 L880 1480 874 1466 M1155 1473 C1152 1469 1150 1415 1150 1353 L1150 1239 1162 1234 C1169 1232 1226 1223 1290 1215 C1353 1206 1424 1197 1447 1193 L1490 1187 1490 1333 L1490 1480 1325 1480 L1160 1480 1155 1473 M3712 2071 C3686 2057 3652 2018 3640 1986 L3630 1958 3630 1906 L3630 1855 3649 1814 L3667 1773 3702 1751 L3737 1730 3782 1730 L3827 1730 3852 1750 C3866 1761 3879 1770 3881 1770 C3883 1770 3885 1726 3885 1672 L3885 1575 3912 1571 L3940 1568 3940 1819 L3940 2070 3909 2070 L3878 2070 3885 2050 L3891 2030 3883 2030 C3879 2030 3865 2039 3853 2050 L3830 2070 3780 2075 L3730 2080 3712 2071 M3720 2000 L3690 1971 3690 1905 L3690 1840 3718 1808 L3746 1777 3787 1776 L3828 1775 3854 1799 L3880 1823 3880 1897 L3880 1971 3850 2000 L3820 2030 3785 2030 L3750 2030 3720 2000 M4100 2062 C4084 2052 4061 2031 4048 2015 L4025 1985 4025 1905 L4025 1825 4048 1791 L4072 1757 4106 1743 L4139 1730 4192 1730 L4245 1730 4278 1750 L4311 1770 4330 1812 L4349 1855 4349 1900 L4350 1945 4327 1989 L4305 2033 4277 2051 L4250 2070 4190 2075 L4130 2080 4100 2062 M4114 2007 L4088 1985 4079 1944 L4071 1904 4079 1865 L4088 1826 4112 1802 L4136 1778 4183 1776 L4229 1775 4256 1802 L4283 1829 4287 1887 L4292 1946 4275 1978 L4259 2010 4234 2020 C4221 2025 4194 2030 4175 2030 L4140 2030 4114 2007 M4900 2070 L4880 2060 4880 2034 L4880 2007 4897 2015 C4907 2019 4935 2024 4960 2027 L5005 2032 5019 2016 L5032 2000 5026 1976 L5020 1953 4965 1926 L4911 1899 4895 1877 L4880 1855 4880 1833 C4880 1820 4885 1799 4891 1784 L4903 1758 4931 1744 L4959 1730 5008 1730 L5057 1730 5067 1742 C5072 1749 5077 1763 5076 1772 L5076 1790 5045 1783 C5028 1779 5003 1777 4990 1778 L4965 1780 4951 1794 L4937 1808 4943 1832 L4949 1856 5000 1880 L5051 1904 5070 1928 L5090 1952 5090 1976 L5090 2000 5075 2029 L5060 2057 5030 2068 L5000 2080 4960 2080 L4920 2080 4900 2070 M5340 2068 L5310 2057 5310 2024 L5310 1991 5358 2012 L5407 2032 5443 2025 L5479 2019 5494 2003 L5510 1988 5510 1956 L5510 1923 5487 1903 C5475 1892 5444 1871 5418 1857 L5372 1830 5341 1795 L5310 1759 5310 1724 L5310 1689 5325 1659 L5340 1630 5367 1616 C5382 1608 5410 1599 5428 1595 L5461 1588 5504 1594 L5547 1600 5553 1632 C5557 1649 5558 1664 5557 1665 C5555 1667 5533 1661 5507 1653 L5459 1637 5422 1651 L5385 1665 5375 1692 L5366 1719 5377 1744 L5389 1769 5457 1813 C5494 1837 5535 1868 5548 1883 L5572 1908 5573 1949 L5574 1989 5554 2017 L5533 2045 5501 2062 L5470 2080 5420 2080 L5370 2080 5340 2068 M5691 2070 L5672 2061 5660 2026 L5648 1991 5650 1888 L5652 1785 5620 1781 L5588 1778 5591 1756 L5595 1735 5622 1735 L5650 1735 5650 1693 L5650 1652 5665 1646 C5674 1642 5688 1640 5695 1640 L5710 1640 5710 1685 L5710 1730 5750 1730 L5790 1730 5790 1754 L5790 1778 5748 1781 L5707 1785 5709 1894 L5711 2004 5721 2017 L5732 2030 5765 2030 L5799 2030 5789 2050 L5780 2070 5745 2075 L5710 2080 5691 2070 M5907 2062 L5875 2045 5853 2011 L5831 1978 5824 1936 L5818 1893 5829 1852 L5840 1810 5865 1781 L5890 1751 5926 1739 L5962 1727 6016 1732 L6070 1736 6104 1769 L6138 1802 6149 1851 L6159 1900 6149 1945 C6144 1970 6132 2002 6123 2016 L6106 2041 6068 2060 L6030 2080 5985 2080 L5940 2080 5907 2062 M5926 2010 L5902 1990 5890 1960 L5877 1929 5882 1884 L5887 1838 5915 1809 L5942 1780 5970 1774 L5997 1768 6034 1784 L6070 1799 6085 1834 L6100 1869 6100 1903 C6100 1921 6095 1951 6088 1968 L6077 2000 6048 2015 L6020 2030 5985 2030 L5950 2030 5926 2010 M6507 2062 L6475 2045 6457 2013 L6439 1981 6433 1931 L6427 1880 6443 1836 L6460 1793 6489 1765 L6519 1737 6571 1732 L6623 1727 6654 1744 L6686 1761 6703 1789 L6719 1818 6722 1866 L6725 1915 6607 1917 L6490 1920 6490 1935 C6490 1944 6496 1964 6505 1980 L6520 2009 6539 2019 L6558 2030 6594 2030 L6630 2030 6665 2015 L6700 2001 6700 2026 L6700 2051 6665 2065 L6630 2080 6585 2080 L6540 2080 6507 2062 M6496 1847 C6499 1835 6512 1813 6525 1800 L6549 1776 6584 1776 L6620 1776 6639 1795 L6658 1815 6664 1842 L6670 1870 6580 1870 L6490 1870 6496 1847 M2596 2062 C2594 2058 2580 2012 2565 1960 C2542 1880 2483 1682 2463 1616 L2458 1598 2491 1601 L2524 1605 2571 1775 C2597 1868 2619 1955 2619 1967 L2620 1990 2627 1989 L2635 1989 2689 1794 L2744 1600 2772 1600 L2799 1600 2814 1652 C2822 1681 2842 1753 2858 1812 C2875 1870 2891 1935 2895 1954 L2902 1990 2911 1990 L2920 1990 2920 1965 C2920 1951 2940 1865 2965 1774 C2989 1683 3010 1606 3010 1604 C3010 1601 3023 1600 3040 1600 L3070 1600 3070 1609 C3070 1618 3018 1800 2959 2002 L2939 2070 2906 2070 L2872 2070 2826 1902 C2800 1810 2779 1729 2779 1722 C2779 1715 2776 1710 2772 1710 L2764 1710 2752 1757 C2745 1783 2724 1864 2705 1937 L2670 2070 2635 2070 L2600 2070 2596 2062 M3130 1899 L3130 1728 3157 1731 L3185 1735 3187 1902 L3190 2070 3160 2070 L3130 2070 3130 1899 M3282 1902 L3285 1735 3310 1735 L3335 1735 3334 1757 L3333 1780 3341 1780 C3345 1780 3352 1773 3357 1766 C3361 1759 3374 1747 3386 1741 L3408 1730 3449 1730 L3489 1730 3522 1759 L3555 1788 3558 1929 L3561 2070 3531 2070 L3502 2070 3501 1950 L3501 1830 3490 1810 L3478 1789 3453 1779 L3428 1769 3404 1776 L3379 1782 3359 1810 L3340 1838 3340 1954 L3340 2070 3310 2070 L3280 2070 3282 1902 M4474 2052 C4454 1994 4380 1745 4380 1738 L4380 1730 4405 1730 L4430 1730 4441 1757 C4446 1772 4463 1833 4478 1892 C4492 1951 4507 1999 4510 1999 C4513 1999 4526 1960 4539 1913 C4552 1865 4571 1805 4580 1780 L4597 1735 4621 1735 L4644 1735 4680 1860 C4699 1928 4718 1991 4722 2000 L4728 2015 4729 1990 C4730 1976 4745 1913 4762 1850 L4795 1735 4822 1731 L4850 1728 4850 1737 C4850 1742 4841 1772 4830 1805 C4819 1838 4797 1911 4780 1967 L4749 2070 4719 2070 L4689 2070 4685 2057 C4683 2050 4667 1993 4648 1931 L4615 1818 4608 1836 C4604 1846 4587 1903 4570 1962 L4540 2070 4510 2070 L4480 2070 4474 2052 M6230 1900 L6230 1730 6255 1730 L6280 1730 6280 1761 L6280 1792 6309 1761 L6338 1730 6369 1730 L6400 1730 6400 1758 L6400 1787 6375 1782 L6350 1777 6325 1793 L6301 1809 6290 1860 L6280 1910 6280 1990 L6280 2070 6255 2070 L6230 2070 6230 1900 M3129 1635 L3118 1621 3129 1600 L3140 1580 3160 1580 L3179 1580 3190 1600 L3201 1621 3190 1635 L3180 1650 3160 1650 L3140 1650 3129 1635 M3052 1240 L3024 1230 2989 1194 L2955 1158 2955 1075 L2955 991 2976 963 L2997 935 3029 916 L3061 897 3115 897 L3168 897 3201 916 L3235 935 3257 979 L3280 1024 3279 1069 L3279 1115 3256 1159 L3233 1204 3201 1222 L3170 1240 3125 1245 L3080 1250 3052 1240 M3051 1180 L3022 1161 3011 1129 C3005 1111 3000 1083 3000 1067 L3000 1037 3021 999 L3043 961 3072 949 L3101 936 3137 945 L3173 955 3194 983 L3215 1011 3215 1076 L3215 1141 3182 1170 L3150 1200 3115 1200 L3080 1200 3051 1180 M4447 1241 C4434 1236 4414 1226 4401 1218 L4378 1205 4359 1167 L4340 1130 4340 1066 L4340 1002 4362 969 L4385 936 4418 916 L4451 897 4505 897 L4558 897 4591 916 L4624 935 4644 970 L4665 1005 4665 1070 L4665 1135 4644 1170 L4624 1205 4582 1227 L4540 1250 4505 1250 C4485 1250 4459 1246 4447 1241 M4449 1187 C4438 1180 4422 1163 4413 1151 L4397 1128 4397 1068 L4396 1008 4426 978 L4456 948 4497 943 L4537 937 4569 966 L4602 996 4607 1046 L4612 1097 4600 1134 L4588 1170 4559 1185 L4530 1200 4500 1200 L4470 1200 4449 1187 M4782 1244 C4772 1240 4754 1228 4742 1217 L4720 1196 4720 1147 L4720 1099 4743 1075 L4767 1051 4801 1045 C4819 1041 4855 1035 4879 1031 L4924 1024 4928 1007 L4931 990 4906 965 L4880 940 4855 940 L4829 940 4789 960 L4750 980 4750 950 L4750 921 4782 911 C4800 906 4826 899 4840 896 L4866 890 4902 900 L4939 910 4959 936 L4980 962 4980 1102 L4980 1241 4952 1238 L4925 1235 4928 1216 L4931 1198 4900 1219 L4870 1240 4835 1245 L4800 1250 4782 1244 M4790 1180 L4770 1160 4770 1140 L4770 1121 4784 1106 L4799 1091 4827 1086 C4842 1083 4872 1078 4893 1074 L4932 1068 4927 1111 L4921 1154 4895 1177 L4870 1200 4840 1200 L4810 1200 4790 1180 M5127 1232 L5095 1215 5072 1170 L5050 1125 5050 1075 L5050 1024 5072 979 L5095 935 5127 916 L5159 898 5205 897 L5250 896 5277 916 L5305 936 5301 838 L5298 740 5329 740 L5360 740 5360 980 C5360 1112 5360 1223 5360 1227 L5360 1235 5332 1235 L5305 1235 5307 1210 L5310 1186 5287 1207 C5260 1232 5219 1250 5185 1250 L5160 1250 5127 1232 M5158 1186 C5146 1178 5131 1162 5123 1148 L5110 1125 5110 1077 L5110 1029 5124 1000 L5138 972 5164 956 L5189 940 5210 940 C5235 940 5270 957 5287 979 L5299 995 5299 1068 L5300 1141 5270 1170 L5240 1200 5210 1200 L5180 1200 5158 1186 M6123 1240 C6090 1228 6052 1193 6034 1157 L6020 1130 6020 1074 L6020 1018 6036 983 L6053 948 6089 924 L6125 901 6163 896 L6201 892 6238 901 L6275 911 6302 937 L6330 963 6340 999 C6345 1018 6349 1053 6349 1075 L6350 1115 6327 1160 L6305 1205 6262 1227 L6220 1250 6185 1250 C6165 1250 6138 1245 6123 1240 M6128 1186 C6116 1178 6101 1162 6093 1148 L6080 1125 6080 1068 L6080 1011 6105 981 L6131 950 6165 944 L6200 937 6228 949 L6256 960 6273 989 L6290 1018 6290 1068 L6290 1119 6278 1145 L6266 1171 6238 1185 L6210 1200 6180 1200 L6150 1200 6128 1186 M2510 1005 L2510 770 2617 770 L2725 770 2775 793 L2825 817 2842 836 C2851 847 2866 872 2874 892 L2890 929 2890 994 L2890 1060 2874 1097 L2858 1135 2831 1163 C2817 1179 2788 1200 2767 1210 L2730 1230 2620 1235 L2510 1240 2510 1005 M2570 1003 L2570 817 2648 821 L2727 826 2762 848 L2797 870 2814 906 L2832 942 2828 1013 L2824 1085 2802 1116 L2780 1147 2745 1163 L2710 1180 2640 1185 L2570 1190 2570 1003 M3404 1227 C3396 1205 3310 915 3310 907 L3310 900 3334 900 L3358 900 3364 909 C3368 915 3385 977 3403 1047 L3436 1175 3480 1040 L3525 905 3549 905 L3574 905 3606 1020 C3624 1083 3639 1142 3639 1152 L3640 1170 3647 1170 L3655 1170 3672 1092 C3682 1049 3697 991 3706 961 L3721 908 3735 903 L3750 897 3764 903 L3779 909 3770 932 C3759 961 3704 1141 3690 1198 L3678 1241 3647 1238 L3617 1235 3594 1155 C3581 1111 3566 1054 3559 1030 L3547 985 3503 1107 L3460 1230 3435 1235 L3410 1240 3404 1227 M3830 1069 L3830 898 3857 901 L3885 905 3888 926 L3891 947 3915 925 L3940 902 3972 897 L4005 892 4039 903 L4073 915 4091 945 L4108 975 4110 1105 L4112 1235 4087 1238 L4061 1241 4058 1114 L4055 988 4025 963 L3996 938 3965 944 L3935 949 3912 975 L3890 1001 3890 1120 L3890 1240 3860 1240 L3830 1240 3830 1069 M4205 1232 C4203 1228 4201 1115 4201 982 L4200 740 4230 740 L4260 740 4260 990 L4260 1240 4235 1240 L4210 1240 4205 1232 M5630 1095 L5630 950 5606 950 L5582 950 5577 930 L5572 911 5577 905 C5580 902 5593 900 5605 900 L5627 900 5633 850 L5638 801 5651 780 L5664 759 5698 744 L5731 728 5755 734 L5780 740 5780 765 L5780 790 5754 784 L5729 777 5709 795 L5690 813 5690 855 L5690 898 5727 901 L5765 905 5768 927 L5771 950 5730 950 L5690 950 5690 1095 L5690 1240 5660 1240 L5630 1240 5630 1095 M5815 1233 C5812 1229 5810 1155 5810 1068 L5810 911 5820 904 L5831 898 5854 903 L5877 909 5872 937 L5866 965 5894 931 L5922 898 5958 901 L5994 905 5994 930 L5994 955 5966 951 L5938 948 5914 964 L5890 979 5880 1017 L5870 1055 5870 1147 L5870 1240 5845 1240 C5831 1240 5817 1237 5815 1233 M6422 1072 L6425 905 6452 901 L6480 898 6480 925 L6480 952 6505 927 L6530 902 6562 897 L6595 892 6626 905 L6657 918 6668 936 L6678 954 6702 932 L6726 909 6759 900 L6791 890 6821 896 L6850 902 6875 932 L6900 961 6900 1101 L6900 1241 6873 1238 L6847 1235 6849 1124 L6851 1013 6840 986 L6830 959 6805 948 L6780 937 6751 949 L6721 961 6705 996 L6688 1030 6690 1132 L6692 1235 6664 1235 L6637 1235 6639 1138 L6641 1041 6630 1000 L6618 959 6592 949 L6565 938 6542 944 L6519 950 6499 982 L6480 1015 6480 1127 L6480 1240 6450 1240 L6420 1240 6422 1072 M940 828 L940 686 959 645 L979 604 1020 577 L1062 551 1130 535 C1168 526 1212 519 1229 519 L1259 520 1299 535 L1339 551 1360 595 L1381 638 1381 756 L1382 875 1362 878 L1341 881 1338 761 L1335 641 1314 613 L1293 585 1257 575 L1221 566 1162 579 L1102 592 1064 613 L1026 635 1006 662 L985 690 981 822 L977 955 968 962 C963 966 955 970 950 970 L940 970 940 828 M1170 857 L1170 795 1189 753 L1208 711 1248 690 C1299 664 1300 664 1300 694 L1300 719 1270 734 L1240 750 1230 769 L1220 788 1220 838 C1220 865 1217 895 1215 904 L1210 920 1190 920 L1170 920 1170 857 M1530 786 L1530 723 1517 707 L1505 691 1465 688 L1425 685 1421 662 L1418 640 1467 640 L1515 640 1536 654 L1558 669 1569 720 C1575 748 1580 786 1580 805 L1580 840 1570 840 C1564 840 1553 842 1545 845 L1530 850 1530 786 ">
			</path>
	</g>
	<g fill="rgb(255,255,255)" stroke="rgb(255,255,255)" stroke-width="1"
		fill-rule="evenodd">
			<path
				d="M0 1340 L0 0 3760 0 L7520 0 7520 1340 L7520 2680 3760 2680 L0 2680 0 1340 M431 2521 L363 2512 316 2491 L270 2471 219 2420 L168 2369 146 2322 L125 2275 121 1380 L118 485 130 430 C145 359 162 328 212 272 L254 228 301 204 L348 180 416 169 L485 159 3815 162 L7145 165 7190 182 L7235 200 7287 245 L7338 290 7366 347 L7395 405 7395 1340 L7395 2275 7373 2321 L7351 2368 7309 2414 L7267 2459 7216 2484 L7165 2509 7097 2519 L7030 2530 3765 2530 L500 2530 431 2521 M1672 2145 C1549 2116 1428 2092 1035 2014 C881 1983 724 1951 687 1943 L620 1928 620 1504 L620 1081 637 1076 C647 1073 805 1041 990 1005 C1174 969 1354 933 1390 925 C1425 917 1529 896 1621 878 L1788 847 1901 887 L2015 927 2020 1499 L2025 2071 2012 2080 C2005 2085 1950 2108 1890 2130 L1780 2170 1672 2145 M1352 1785 C1315 1778 1255 1768 1220 1763 L1155 1755 1152 1627 L1149 1500 1319 1500 L1490 1500 1490 1650 L1490 1800 1455 1800 C1435 1800 1389 1793 1352 1785 M978 1735 C934 1727 891 1718 883 1715 L870 1710 870 1605 L870 1500 1000 1500 L1130 1500 1130 1625 L1130 1750 1095 1750 C1075 1750 1023 1743 978 1735 M874 1466 C871 1459 870 1413 872 1364 L875 1275 985 1258 C1045 1248 1104 1240 1115 1240 L1135 1239 1132 1359 L1130 1480 1005 1480 L880 1480 874 1466 M1155 1473 C1152 1469 1150 1415 1150 1353 L1150 1239 1162 1234 C1169 1232 1226 1223 1290 1215 C1353 1206 1424 1197 1447 1193 L1490 1187 1490 1333 L1490 1480 1325 1480 L1160 1480 1155 1473 M3712 2071 C3686 2057 3652 2018 3640 1986 L3630 1958 3630 1906 L3630 1855 3649 1814 L3667 1773 3702 1751 L3737 1730 3782 1730 L3827 1730 3852 1750 C3866 1761 3879 1770 3881 1770 C3883 1770 3885 1726 3885 1672 L3885 1575 3912 1571 L3940 1568 3940 1819 L3940 2070 3909 2070 L3878 2070 3885 2050 L3891 2030 3883 2030 C3879 2030 3865 2039 3853 2050 L3830 2070 3780 2075 L3730 2080 3712 2071 M3720 2000 L3690 1971 3690 1905 L3690 1840 3718 1808 L3746 1777 3787 1776 L3828 1775 3854 1799 L3880 1823 3880 1897 L3880 1971 3850 2000 L3820 2030 3785 2030 L3750 2030 3720 2000 M4100 2062 C4084 2052 4061 2031 4048 2015 L4025 1985 4025 1905 L4025 1825 4048 1791 L4072 1757 4106 1743 L4139 1730 4192 1730 L4245 1730 4278 1750 L4311 1770 4330 1812 L4349 1855 4349 1900 L4350 1945 4327 1989 L4305 2033 4277 2051 L4250 2070 4190 2075 L4130 2080 4100 2062 M4114 2007 L4088 1985 4079 1944 L4071 1904 4079 1865 L4088 1826 4112 1802 L4136 1778 4183 1776 L4229 1775 4256 1802 L4283 1829 4287 1887 L4292 1946 4275 1978 L4259 2010 4234 2020 C4221 2025 4194 2030 4175 2030 L4140 2030 4114 2007 M4900 2070 L4880 2060 4880 2034 L4880 2007 4897 2015 C4907 2019 4935 2024 4960 2027 L5005 2032 5019 2016 L5032 2000 5026 1976 L5020 1953 4965 1926 L4911 1899 4895 1877 L4880 1855 4880 1833 C4880 1820 4885 1799 4891 1784 L4903 1758 4931 1744 L4959 1730 5008 1730 L5057 1730 5067 1742 C5072 1749 5077 1763 5076 1772 L5076 1790 5045 1783 C5028 1779 5003 1777 4990 1778 L4965 1780 4951 1794 L4937 1808 4943 1832 L4949 1856 5000 1880 L5051 1904 5070 1928 L5090 1952 5090 1976 L5090 2000 5075 2029 L5060 2057 5030 2068 L5000 2080 4960 2080 L4920 2080 4900 2070 M5340 2068 L5310 2057 5310 2024 L5310 1991 5358 2012 L5407 2032 5443 2025 L5479 2019 5494 2003 L5510 1988 5510 1956 L5510 1923 5487 1903 C5475 1892 5444 1871 5418 1857 L5372 1830 5341 1795 L5310 1759 5310 1724 L5310 1689 5325 1659 L5340 1630 5367 1616 C5382 1608 5410 1599 5428 1595 L5461 1588 5504 1594 L5547 1600 5553 1632 C5557 1649 5558 1664 5557 1665 C5555 1667 5533 1661 5507 1653 L5459 1637 5422 1651 L5385 1665 5375 1692 L5366 1719 5377 1744 L5389 1769 5457 1813 C5494 1837 5535 1868 5548 1883 L5572 1908 5573 1949 L5574 1989 5554 2017 L5533 2045 5501 2062 L5470 2080 5420 2080 L5370 2080 5340 2068 M5691 2070 L5672 2061 5660 2026 L5648 1991 5650 1888 L5652 1785 5620 1781 L5588 1778 5591 1756 L5595 1735 5622 1735 L5650 1735 5650 1693 L5650 1652 5665 1646 C5674 1642 5688 1640 5695 1640 L5710 1640 5710 1685 L5710 1730 5750 1730 L5790 1730 5790 1754 L5790 1778 5748 1781 L5707 1785 5709 1894 L5711 2004 5721 2017 L5732 2030 5765 2030 L5799 2030 5789 2050 L5780 2070 5745 2075 L5710 2080 5691 2070 M5907 2062 L5875 2045 5853 2011 L5831 1978 5824 1936 L5818 1893 5829 1852 L5840 1810 5865 1781 L5890 1751 5926 1739 L5962 1727 6016 1732 L6070 1736 6104 1769 L6138 1802 6149 1851 L6159 1900 6149 1945 C6144 1970 6132 2002 6123 2016 L6106 2041 6068 2060 L6030 2080 5985 2080 L5940 2080 5907 2062 M5926 2010 L5902 1990 5890 1960 L5877 1929 5882 1884 L5887 1838 5915 1809 L5942 1780 5970 1774 L5997 1768 6034 1784 L6070 1799 6085 1834 L6100 1869 6100 1903 C6100 1921 6095 1951 6088 1968 L6077 2000 6048 2015 L6020 2030 5985 2030 L5950 2030 5926 2010 M6507 2062 L6475 2045 6457 2013 L6439 1981 6433 1931 L6427 1880 6443 1836 L6460 1793 6489 1765 L6519 1737 6571 1732 L6623 1727 6654 1744 L6686 1761 6703 1789 L6719 1818 6722 1866 L6725 1915 6607 1917 L6490 1920 6490 1935 C6490 1944 6496 1964 6505 1980 L6520 2009 6539 2019 L6558 2030 6594 2030 L6630 2030 6665 2015 L6700 2001 6700 2026 L6700 2051 6665 2065 L6630 2080 6585 2080 L6540 2080 6507 2062 M6496 1847 C6499 1835 6512 1813 6525 1800 L6549 1776 6584 1776 L6620 1776 6639 1795 L6658 1815 6664 1842 L6670 1870 6580 1870 L6490 1870 6496 1847 M2596 2062 C2594 2058 2580 2012 2565 1960 C2542 1880 2483 1682 2463 1616 L2458 1598 2491 1601 L2524 1605 2571 1775 C2597 1868 2619 1955 2619 1967 L2620 1990 2627 1989 L2635 1989 2689 1794 L2744 1600 2772 1600 L2799 1600 2814 1652 C2822 1681 2842 1753 2858 1812 C2875 1870 2891 1935 2895 1954 L2902 1990 2911 1990 L2920 1990 2920 1965 C2920 1951 2940 1865 2965 1774 C2989 1683 3010 1606 3010 1604 C3010 1601 3023 1600 3040 1600 L3070 1600 3070 1609 C3070 1618 3018 1800 2959 2002 L2939 2070 2906 2070 L2872 2070 2826 1902 C2800 1810 2779 1729 2779 1722 C2779 1715 2776 1710 2772 1710 L2764 1710 2752 1757 C2745 1783 2724 1864 2705 1937 L2670 2070 2635 2070 L2600 2070 2596 2062 M3130 1899 L3130 1728 3157 1731 L3185 1735 3187 1902 L3190 2070 3160 2070 L3130 2070 3130 1899 M3282 1902 L3285 1735 3310 1735 L3335 1735 3334 1757 L3333 1780 3341 1780 C3345 1780 3352 1773 3357 1766 C3361 1759 3374 1747 3386 1741 L3408 1730 3449 1730 L3489 1730 3522 1759 L3555 1788 3558 1929 L3561 2070 3531 2070 L3502 2070 3501 1950 L3501 1830 3490 1810 L3478 1789 3453 1779 L3428 1769 3404 1776 L3379 1782 3359 1810 L3340 1838 3340 1954 L3340 2070 3310 2070 L3280 2070 3282 1902 M4474 2052 C4454 1994 4380 1745 4380 1738 L4380 1730 4405 1730 L4430 1730 4441 1757 C4446 1772 4463 1833 4478 1892 C4492 1951 4507 1999 4510 1999 C4513 1999 4526 1960 4539 1913 C4552 1865 4571 1805 4580 1780 L4597 1735 4621 1735 L4644 1735 4680 1860 C4699 1928 4718 1991 4722 2000 L4728 2015 4729 1990 C4730 1976 4745 1913 4762 1850 L4795 1735 4822 1731 L4850 1728 4850 1737 C4850 1742 4841 1772 4830 1805 C4819 1838 4797 1911 4780 1967 L4749 2070 4719 2070 L4689 2070 4685 2057 C4683 2050 4667 1993 4648 1931 L4615 1818 4608 1836 C4604 1846 4587 1903 4570 1962 L4540 2070 4510 2070 L4480 2070 4474 2052 M6230 1900 L6230 1730 6255 1730 L6280 1730 6280 1761 L6280 1792 6309 1761 L6338 1730 6369 1730 L6400 1730 6400 1758 L6400 1787 6375 1782 L6350 1777 6325 1793 L6301 1809 6290 1860 L6280 1910 6280 1990 L6280 2070 6255 2070 L6230 2070 6230 1900 M3129 1635 L3118 1621 3129 1600 L3140 1580 3160 1580 L3179 1580 3190 1600 L3201 1621 3190 1635 L3180 1650 3160 1650 L3140 1650 3129 1635 M3052 1240 L3024 1230 2989 1194 L2955 1158 2955 1075 L2955 991 2976 963 L2997 935 3029 916 L3061 897 3115 897 L3168 897 3201 916 L3235 935 3257 979 L3280 1024 3279 1069 L3279 1115 3256 1159 L3233 1204 3201 1222 L3170 1240 3125 1245 L3080 1250 3052 1240 M3051 1180 L3022 1161 3011 1129 C3005 1111 3000 1083 3000 1067 L3000 1037 3021 999 L3043 961 3072 949 L3101 936 3137 945 L3173 955 3194 983 L3215 1011 3215 1076 L3215 1141 3182 1170 L3150 1200 3115 1200 L3080 1200 3051 1180 M4447 1241 C4434 1236 4414 1226 4401 1218 L4378 1205 4359 1167 L4340 1130 4340 1066 L4340 1002 4362 969 L4385 936 4418 916 L4451 897 4505 897 L4558 897 4591 916 L4624 935 4644 970 L4665 1005 4665 1070 L4665 1135 4644 1170 L4624 1205 4582 1227 L4540 1250 4505 1250 C4485 1250 4459 1246 4447 1241 M4449 1187 C4438 1180 4422 1163 4413 1151 L4397 1128 4397 1068 L4396 1008 4426 978 L4456 948 4497 943 L4537 937 4569 966 L4602 996 4607 1046 L4612 1097 4600 1134 L4588 1170 4559 1185 L4530 1200 4500 1200 L4470 1200 4449 1187 M4782 1244 C4772 1240 4754 1228 4742 1217 L4720 1196 4720 1147 L4720 1099 4743 1075 L4767 1051 4801 1045 C4819 1041 4855 1035 4879 1031 L4924 1024 4928 1007 L4931 990 4906 965 L4880 940 4855 940 L4829 940 4789 960 L4750 980 4750 950 L4750 921 4782 911 C4800 906 4826 899 4840 896 L4866 890 4902 900 L4939 910 4959 936 L4980 962 4980 1102 L4980 1241 4952 1238 L4925 1235 4928 1216 L4931 1198 4900 1219 L4870 1240 4835 1245 L4800 1250 4782 1244 M4790 1180 L4770 1160 4770 1140 L4770 1121 4784 1106 L4799 1091 4827 1086 C4842 1083 4872 1078 4893 1074 L4932 1068 4927 1111 L4921 1154 4895 1177 L4870 1200 4840 1200 L4810 1200 4790 1180 M5127 1232 L5095 1215 5072 1170 L5050 1125 5050 1075 L5050 1024 5072 979 L5095 935 5127 916 L5159 898 5205 897 L5250 896 5277 916 L5305 936 5301 838 L5298 740 5329 740 L5360 740 5360 980 C5360 1112 5360 1223 5360 1227 L5360 1235 5332 1235 L5305 1235 5307 1210 L5310 1186 5287 1207 C5260 1232 5219 1250 5185 1250 L5160 1250 5127 1232 M5158 1186 C5146 1178 5131 1162 5123 1148 L5110 1125 5110 1077 L5110 1029 5124 1000 L5138 972 5164 956 L5189 940 5210 940 C5235 940 5270 957 5287 979 L5299 995 5299 1068 L5300 1141 5270 1170 L5240 1200 5210 1200 L5180 1200 5158 1186 M6123 1240 C6090 1228 6052 1193 6034 1157 L6020 1130 6020 1074 L6020 1018 6036 983 L6053 948 6089 924 L6125 901 6163 896 L6201 892 6238 901 L6275 911 6302 937 L6330 963 6340 999 C6345 1018 6349 1053 6349 1075 L6350 1115 6327 1160 L6305 1205 6262 1227 L6220 1250 6185 1250 C6165 1250 6138 1245 6123 1240 M6128 1186 C6116 1178 6101 1162 6093 1148 L6080 1125 6080 1068 L6080 1011 6105 981 L6131 950 6165 944 L6200 937 6228 949 L6256 960 6273 989 L6290 1018 6290 1068 L6290 1119 6278 1145 L6266 1171 6238 1185 L6210 1200 6180 1200 L6150 1200 6128 1186 M2510 1005 L2510 770 2617 770 L2725 770 2775 793 L2825 817 2842 836 C2851 847 2866 872 2874 892 L2890 929 2890 994 L2890 1060 2874 1097 L2858 1135 2831 1163 C2817 1179 2788 1200 2767 1210 L2730 1230 2620 1235 L2510 1240 2510 1005 M2570 1003 L2570 817 2648 821 L2727 826 2762 848 L2797 870 2814 906 L2832 942 2828 1013 L2824 1085 2802 1116 L2780 1147 2745 1163 L2710 1180 2640 1185 L2570 1190 2570 1003 M3404 1227 C3396 1205 3310 915 3310 907 L3310 900 3334 900 L3358 900 3364 909 C3368 915 3385 977 3403 1047 L3436 1175 3480 1040 L3525 905 3549 905 L3574 905 3606 1020 C3624 1083 3639 1142 3639 1152 L3640 1170 3647 1170 L3655 1170 3672 1092 C3682 1049 3697 991 3706 961 L3721 908 3735 903 L3750 897 3764 903 L3779 909 3770 932 C3759 961 3704 1141 3690 1198 L3678 1241 3647 1238 L3617 1235 3594 1155 C3581 1111 3566 1054 3559 1030 L3547 985 3503 1107 L3460 1230 3435 1235 L3410 1240 3404 1227 M3830 1069 L3830 898 3857 901 L3885 905 3888 926 L3891 947 3915 925 L3940 902 3972 897 L4005 892 4039 903 L4073 915 4091 945 L4108 975 4110 1105 L4112 1235 4087 1238 L4061 1241 4058 1114 L4055 988 4025 963 L3996 938 3965 944 L3935 949 3912 975 L3890 1001 3890 1120 L3890 1240 3860 1240 L3830 1240 3830 1069 M4205 1232 C4203 1228 4201 1115 4201 982 L4200 740 4230 740 L4260 740 4260 990 L4260 1240 4235 1240 L4210 1240 4205 1232 M5630 1095 L5630 950 5606 950 L5582 950 5577 930 L5572 911 5577 905 C5580 902 5593 900 5605 900 L5627 900 5633 850 L5638 801 5651 780 L5664 759 5698 744 L5731 728 5755 734 L5780 740 5780 765 L5780 790 5754 784 L5729 777 5709 795 L5690 813 5690 855 L5690 898 5727 901 L5765 905 5768 927 L5771 950 5730 950 L5690 950 5690 1095 L5690 1240 5660 1240 L5630 1240 5630 1095 M5815 1233 C5812 1229 5810 1155 5810 1068 L5810 911 5820 904 L5831 898 5854 903 L5877 909 5872 937 L5866 965 5894 931 L5922 898 5958 901 L5994 905 5994 930 L5994 955 5966 951 L5938 948 5914 964 L5890 979 5880 1017 L5870 1055 5870 1147 L5870 1240 5845 1240 C5831 1240 5817 1237 5815 1233 M6422 1072 L6425 905 6452 901 L6480 898 6480 925 L6480 952 6505 927 L6530 902 6562 897 L6595 892 6626 905 L6657 918 6668 936 L6678 954 6702 932 L6726 909 6759 900 L6791 890 6821 896 L6850 902 6875 932 L6900 961 6900 1101 L6900 1241 6873 1238 L6847 1235 6849 1124 L6851 1013 6840 986 L6830 959 6805 948 L6780 937 6751 949 L6721 961 6705 996 L6688 1030 6690 1132 L6692 1235 6664 1235 L6637 1235 6639 1138 L6641 1041 6630 1000 L6618 959 6592 949 L6565 938 6542 944 L6519 950 6499 982 L6480 1015 6480 1127 L6480 1240 6450 1240 L6420 1240 6422 1072 M940 828 L940 686 959 645 L979 604 1020 577 L1062 551 1130 535 C1168 526 1212 519 1229 519 L1259 520 1299 535 L1339 551 1360 595 L1381 638 1381 756 L1382 875 1362 878 L1341 881 1338 761 L1335 641 1314 613 L1293 585 1257 575 L1221 566 1162 579 L1102 592 1064 613 L1026 635 1006 662 L985 690 981 822 L977 955 968 962 C963 966 955 970 950 970 L940 970 940 828 M1170 857 L1170 795 1189 753 L1208 711 1248 690 C1299 664 1300 664 1300 694 L1300 719 1270 734 L1240 750 1230 769 L1220 788 1220 838 C1220 865 1217 895 1215 904 L1210 920 1190 920 L1170 920 1170 857 M1530 786 L1530 723 1517 707 L1505 691 1465 688 L1425 685 1421 662 L1418 640 1467 640 L1515 640 1536 654 L1558 669 1569 720 C1575 748 1580 786 1580 805 L1580 840 1570 840 C1564 840 1553 842 1545 845 L1530 850 1530 786 ">
			</path>
	</g>
</svg>